<svg width="92" height="89" viewBox="0 0 92 89" fill="none" xmlns="http://www.w3.org/2000/svg">
<g filter="url(#filter0_d_9_2)">
<path d="M13.6751 56.9094L42.4659 67.3456C44.8721 68.2181 47.4736 68.2181 49.8798 67.3456L78.6718 56.9094C79.4498 56.6272 80.1266 56.086 80.6061 55.3623C81.0856 54.6387 81.3437 53.7693 81.3438 52.8773V46.3683L48.9797 56.928C47.1443 57.5256 45.2038 57.5256 43.3647 56.928L11.0032 46.3683V52.8773C11.0032 54.7061 12.079 56.3304 13.6751 56.9094ZM47.8563 52.8561L81.3438 41.9298L81.3438 11.5988C81.3438 9.60662 80.0713 7.88275 78.2834 7.44979L48.716 0.304642C47.041 -0.100429 45.3047 -0.100429 43.6297 0.304642L14.0622 7.44979C12.2744 7.88143 11.0019 9.60662 11.0019 11.5988L11.0019 41.9311L44.487 52.8561C45.5909 53.2173 46.7572 53.2173 47.8563 52.8561ZM65.7125 37.4395C65.7125 36.9601 66.0068 36.5404 66.4318 36.4142L76.2013 33.5163C76.8229 33.333 77.4359 33.8417 77.4359 34.5416V36.7436C77.4359 37.223 77.1416 37.6427 76.7167 37.7689L66.9471 40.6668C66.3255 40.8514 65.7125 40.3427 65.7125 39.6415V37.4395ZM48.1274 42.6563C48.1274 42.1768 48.4217 41.7572 48.8466 41.631L60.5701 38.154C61.1917 37.9694 61.8047 38.4781 61.8047 39.1793V41.3813C61.8047 41.8608 61.5104 42.2804 61.0854 42.4066L49.362 45.8836C48.7404 46.0682 48.1274 45.5595 48.1274 44.8583V42.6563ZM26.6344 39.6415C26.6344 40.3427 26.0214 40.8514 25.3998 40.6668L15.6302 37.7689C15.2053 37.6427 14.911 37.223 14.911 36.7436V34.5416C14.911 33.8404 15.524 33.3317 16.1456 33.5163L25.9151 36.4142C26.1218 36.4756 26.3042 36.6093 26.4342 36.7946C26.5642 36.9798 26.6345 37.2065 26.6344 37.4395V39.6415ZM44.2195 44.8569C44.2195 45.5582 43.6065 46.0668 42.9849 45.8822L31.2615 42.4053C30.8365 42.2791 30.5422 41.8594 30.5422 41.38V39.178C30.5422 38.4768 31.1552 37.9681 31.7768 38.1527L43.5003 41.6297C43.707 41.6911 43.8894 41.8247 44.0194 42.01C44.1494 42.1953 44.2197 42.4219 44.2195 42.655V44.8569Z" fill="white"/>
</g>
<defs>
<filter id="filter0_d_9_2" x="0.49843" y="0" width="91.3469" height="89.0031" filterUnits="userSpaceOnUse" color-interpolation-filters="sRGB">
<feFlood flood-opacity="0" result="BackgroundImageFix"/>
<feColorMatrix in="SourceAlpha" type="matrix" values="0 0 0 0 0 0 0 0 0 0 0 0 0 0 0 0 0 0 127 0" result="hardAlpha"/>
<feOffset dy="10.5016"/>
<feGaussianBlur stdDeviation="5.25078"/>
<feComposite in2="hardAlpha" operator="out"/>
<feColorMatrix type="matrix" values="0 0 0 0 0 0 0 0 0 0 0 0 0 0 0 0 0 0 0.25 0"/>
<feBlend mode="normal" in2="BackgroundImageFix" result="effect1_dropShadow_9_2"/>
<feBlend mode="normal" in="SourceGraphic" in2="effect1_dropShadow_9_2" result="shape"/>
</filter>
</defs>
</svg>
